<?xml version="1.0" encoding="UTF-8"?>
<svg id="Layer_1" data-name="Layer 1" xmlns="http://www.w3.org/2000/svg" viewBox="0 0 237.8 299.52">
  <defs>
    <style>
      .cls-1 {
        fill: #fff;
        stroke: #fff;
        stroke-miterlimit: 10;
        stroke-width: 5px;
      }
    </style>
  </defs>
  <path class="cls-1" d="M233.93,28.92s-.03-.02-.04-.03c-1.34-.94-2.71-1.85-4.09-2.74-.27-.18-.54-.35-.81-.52-1.39-.89-2.79-1.76-4.21-2.6-.05-.03-.1-.06-.15-.09-1.39-.82-2.79-1.61-4.21-2.39-.25-.14-.5-.28-.75-.41-1.45-.78-2.91-1.55-4.39-2.28-.18-.09-.36-.18-.54-.26-1.39-.68-2.78-1.34-4.19-1.98-.2-.09-.4-.19-.6-.28-1.51-.68-3.03-1.33-4.56-1.95-.26-.11-.53-.21-.79-.32-1.48-.6-2.97-1.17-4.48-1.72-.09-.03-.18-.07-.28-.1-1.57-.57-3.15-1.1-4.75-1.62-.31-.1-.62-.2-.93-.3-1.61-.51-3.22-1-4.85-1.45-.02,0-.03,0-.05-.01-1.6-.44-3.22-.85-4.84-1.25-.33-.08-.66-.16-.99-.24-1.62-.38-3.25-.73-4.88-1.06-.23-.04-.45-.08-.68-.13-1.49-.29-2.99-.55-4.5-.8-.31-.05-.62-.1-.93-.15-1.64-.25-3.29-.48-4.95-.68-.34-.04-.68-.08-1.01-.11-1.52-.17-3.06-.32-4.59-.45-.22-.02-.44-.04-.67-.06-1.68-.13-3.37-.22-5.07-.3-.39-.02-.78-.03-1.17-.04-1.73-.06-3.46-.1-5.21-.1C68.43,2.5,2.5,68.43,2.5,149.76s65.93,147.26,147.26,147.26c1.74,0,3.48-.04,5.21-.1.39-.01.78-.03,1.17-.04,1.7-.07,3.39-.17,5.07-.3.22-.02.44-.04.67-.06,1.54-.13,3.07-.28,4.59-.45.34-.04.68-.07,1.01-.11,1.66-.2,3.31-.42,4.95-.68.31-.05.62-.1.93-.15,1.51-.24,3.01-.51,4.5-.8.23-.04.46-.08.68-.13,1.64-.32,3.27-.68,4.88-1.06.33-.08.66-.16.99-.24,1.62-.39,3.24-.8,4.84-1.25.02,0,.03,0,.05-.01,1.63-.45,3.25-.94,4.85-1.45.31-.1.62-.2.93-.3,1.59-.52,3.18-1.05,4.75-1.62.09-.03.18-.07.28-.1,1.51-.55,3-1.12,4.48-1.72.26-.11.53-.21.79-.32,1.53-.63,3.06-1.28,4.56-1.95.2-.09.4-.19.6-.28,1.41-.64,2.81-1.3,4.19-1.98.18-.09.36-.18.54-.26,1.48-.74,2.94-1.5,4.39-2.28.25-.14.5-.27.75-.41,1.42-.78,2.82-1.57,4.21-2.39.05-.03.1-.06.15-.09,1.42-.84,2.82-1.72,4.21-2.6.27-.17.54-.35.81-.52,1.38-.89,2.74-1.8,4.09-2.74.01,0,.03-.02.04-.03-30.85-30.97-49.92-73.68-49.92-120.84s19.07-89.87,49.92-120.84Z"/>
</svg>
