<?xml version="1.0" encoding="UTF-8"?>
<svg id="Layer_1" data-name="Layer 1" xmlns="http://www.w3.org/2000/svg" viewBox="0 0 2750 632.89">
  <defs>
    <style>
      .cls-1, .cls-2 {
        fill: #231f20;
      }

      .cls-2 {
        font-family: CircularSpotifyText-Bold, 'Circular Spotify Text';
        font-size: 454.16px;
        font-weight: 700;
      }

      .cls-3 {
        letter-spacing: -.07em;
      }

      .cls-4 {
        letter-spacing: -.02em;
      }
    </style>
  </defs>
  <g>
    <path class="cls-1" d="M471.47,53.82s-.06-.04-.08-.06c-2.73-1.91-5.52-3.77-8.33-5.58-.55-.37-1.1-.71-1.65-1.06-2.83-1.81-5.68-3.59-8.58-5.3-.1-.06-.2-.12-.31-.18-2.83-1.67-5.68-3.28-8.58-4.87-.51-.29-1.02-.57-1.53-.84-2.95-1.59-5.93-3.16-8.94-4.64-.37-.18-.73-.37-1.1-.53-2.83-1.39-5.66-2.73-8.54-4.03-.41-.18-.81-.39-1.22-.57-3.08-1.39-6.17-2.71-9.29-3.97-.53-.22-1.08-.43-1.61-.65-3.02-1.22-6.05-2.38-9.13-3.5-.18-.06-.37-.14-.57-.2-3.2-1.16-6.42-2.24-9.68-3.3-.63-.2-1.26-.41-1.89-.61-3.28-1.04-6.56-2.04-9.88-2.95-.04,0-.06,0-.1-.02-3.26-.9-6.56-1.73-9.86-2.55-.67-.16-1.34-.33-2.02-.49-3.3-.77-6.62-1.49-9.94-2.16-.47-.08-.92-.16-1.39-.26-3.04-.59-6.09-1.12-9.17-1.63-.63-.1-1.26-.2-1.89-.31-3.34-.51-6.7-.98-10.08-1.39-.69-.08-1.39-.16-2.06-.22-3.1-.35-6.23-.65-9.35-.92-.45-.04-.9-.08-1.36-.12-3.42-.26-6.87-.45-10.33-.61-.79-.04-1.59-.06-2.38-.08-3.52-.12-7.05-.2-10.61-.2C134.31,0,0,134.31,0,300s134.31,300,300,300c3.54,0,7.09-.08,10.61-.2.79-.02,1.59-.06,2.38-.08,3.46-.14,6.91-.35,10.33-.61.45-.04.9-.08,1.36-.12,3.14-.26,6.25-.57,9.35-.92.69-.08,1.39-.14,2.06-.22,3.38-.41,6.74-.86,10.08-1.39.63-.1,1.26-.2,1.89-.31,3.08-.49,6.13-1.04,9.17-1.63.47-.08.94-.16,1.39-.26,3.34-.65,6.66-1.39,9.94-2.16.67-.16,1.34-.33,2.02-.49,3.3-.79,6.6-1.63,9.86-2.55.04,0,.06,0,.1-.02,3.32-.92,6.62-1.91,9.88-2.95.63-.2,1.26-.41,1.89-.61,3.24-1.06,6.48-2.14,9.68-3.3.18-.06.37-.14.57-.2,3.08-1.12,6.11-2.28,9.13-3.5.53-.22,1.08-.43,1.61-.65,3.12-1.28,6.23-2.61,9.29-3.97.41-.18.81-.39,1.22-.57,2.87-1.3,5.72-2.65,8.54-4.03.37-.18.73-.37,1.1-.53,3.02-1.51,5.99-3.06,8.94-4.64.51-.29,1.02-.55,1.53-.84,2.89-1.59,5.74-3.2,8.58-4.87.1-.06.2-.12.31-.18,2.89-1.71,5.74-3.5,8.58-5.3.55-.35,1.1-.71,1.65-1.06,2.81-1.81,5.58-3.67,8.33-5.58.02,0,.06-.04.08-.06-62.85-63.09-101.7-150.1-101.7-246.18s38.85-183.08,101.7-246.18h.02Z"/>
    <path class="cls-1" d="M718.61,0c-3.54,0-7.09.08-10.61.2-.79.02-1.59.06-2.38.08-3.46.14-6.91.35-10.33.61-.45.04-.9.08-1.36.12-3.14.26-6.25.57-9.35.92-.69.08-1.39.14-2.06.22-3.38.41-6.74.86-10.08,1.39-.63.1-1.26.2-1.89.31-3.08.49-6.13,1.04-9.17,1.63-.47.08-.94.16-1.39.26-3.34.65-6.66,1.39-9.94,2.16-.67.16-1.34.33-2.02.49-3.3.79-6.6,1.63-9.86,2.55-.04,0-.06,0-.1.02-3.32.92-6.62,1.91-9.88,2.95-.63.2-1.26.41-1.89.61-3.24,1.06-6.48,2.14-9.68,3.3-.18.06-.37.14-.57.2-3.08,1.12-6.11,2.28-9.13,3.5-.53.22-1.08.43-1.61.65-3.12,1.28-6.23,2.61-9.29,3.97-.41.18-.81.39-1.22.57-2.87,1.3-5.72,2.65-8.54,4.03-.37.18-.73.37-1.1.53-3.02,1.51-5.99,3.06-8.94,4.64-.51.29-1.02.55-1.53.84-2.89,1.59-5.74,3.2-8.58,4.87-.1.06-.2.12-.31.18-2.89,1.71-5.74,3.5-8.58,5.3-.55.35-1.1.71-1.65,1.06-2.81,1.81-5.58,3.67-8.33,5.58-.02,0-.06.04-.08.06,62.85,63.09,101.7,150.1,101.7,246.18s-38.85,183.08-101.7,246.18c.02,0,.06.04.08.06,2.73,1.91,5.52,3.77,8.33,5.58.55.37,1.1.71,1.65,1.06,2.83,1.81,5.68,3.59,8.58,5.3.1.06.2.12.31.18,2.83,1.67,5.68,3.28,8.58,4.87.51.29,1.02.57,1.53.84,2.95,1.59,5.93,3.16,8.94,4.64.37.18.73.37,1.1.53,2.83,1.39,5.66,2.73,8.54,4.03.41.18.81.39,1.22.57,3.08,1.39,6.17,2.71,9.29,3.97.53.22,1.08.43,1.61.65,3.02,1.22,6.05,2.38,9.13,3.5.18.06.37.14.57.2,3.2,1.16,6.42,2.24,9.68,3.3.63.2,1.26.41,1.89.61,3.28,1.04,6.56,2.04,9.88,2.95.04,0,.06,0,.1.02,3.26.9,6.56,1.73,9.86,2.55.67.16,1.34.33,2.02.49,3.3.77,6.62,1.49,9.94,2.16.47.08.92.16,1.39.26,3.04.59,6.09,1.12,9.17,1.63.63.1,1.26.2,1.89.31,3.34.51,6.7.98,10.08,1.39.69.08,1.39.16,2.06.22,3.1.35,6.23.65,9.35.92.45.04.9.08,1.36.12,3.42.26,6.87.45,10.33.61.79.04,1.59.06,2.38.08,3.52.12,7.05.2,10.61.2,165.69,0,300-134.31,300-300S884.29,0,718.61,0Z"/>
    <path class="cls-1" d="M600,300c0-84.26-34.75-160.41-90.7-214.89-55.94,54.5-90.7,130.63-90.7,214.89s34.75,160.41,90.7,214.89c55.94-54.5,90.7-130.63,90.7-214.89h0Z"/>
  </g>
  <text class="cls-2" transform="translate(1150 461.22)"><tspan class="cls-3" x="0" y="0">V</tspan><tspan x="281.59" y="0">enni</tspan><tspan class="cls-4" x="1185.81" y="0">fy</tspan></text>
</svg>